<svg width="175" height="183" viewBox="0 0 175 183" fill="none" xmlns="http://www.w3.org/2000/svg">
<mask id="mask0_2003_44" style="mask-type:luminance" maskUnits="userSpaceOnUse" x="11" y="53" width="139" height="106">
<path d="M35.553 53.9531L149.763 106.435L125.482 158.136L11.2714 105.654L35.553 53.9531Z" fill="white"/>
</mask>
<g mask="url(#mask0_2003_44)">
<mask id="mask1_2003_44" style="mask-type:luminance" maskUnits="userSpaceOnUse" x="29" y="66" width="115" height="65">
<path d="M41.1431 66.4277L29.1179 67.656L29.4266 69.6234L69.103 130.924L141.566 122.469L143.795 120.35L128.552 98.2089L41.1431 66.4277Z" fill="white"/>
</mask>
<g mask="url(#mask1_2003_44)">
<path d="M34.9654 55.2061L11.7748 104.581L125.985 157.06L149.175 107.685L34.9654 55.2061Z" fill="#141218"/>
</g>
</g>
<mask id="mask2_2003_44" style="mask-type:luminance" maskUnits="userSpaceOnUse" x="0" y="14" width="144" height="157">
<path d="M54.1594 14.45L143.387 55.4386L89.2282 170.718L0.000251222 129.729L54.1594 14.45Z" fill="white"/>
</mask>
<g mask="url(#mask2_2003_44)">
<path d="M70.5272 127.768L70.4244 136.162L57.2717 155.983L15.8988 95.8991L29.1417 67.7111L70.5272 127.768ZM107.049 40.4398L95.2982 71.4786L95.8166 73.0651L98.5132 76.9678L101.206 78.2049L131.753 76.0004L107.049 40.4398ZM44.7339 34.5227L31.4783 62.7376L72.8512 122.821L83.0538 107.341L86.1099 94.5997L84.7239 90.58L49.7828 36.842L44.7339 34.5227Z" fill="#272727"/>
</g>
<mask id="mask3_2003_44" style="mask-type:luminance" maskUnits="userSpaceOnUse" x="62" y="29" width="49" height="49">
<path d="M77.7495 29.5603L110.595 44.6477L95.2295 77.3513L62.3844 62.2639L77.7495 29.5603Z" fill="white"/>
</mask>
<g mask="url(#mask3_2003_44)">
<mask id="mask4_2003_44" style="mask-type:luminance" maskUnits="userSpaceOnUse" x="71" y="43" width="38" height="31">
<path d="M90.951 73.6304L89.5264 72.9761L71.129 46.3034L107.056 43.4447L108.979 44.9247L95.7147 73.1531L90.951 73.6304Z" fill="white"/>
</mask>
<g mask="url(#mask4_2003_44)">
<path d="M78.6111 30.3804L64.086 61.2917L94.6847 75.3452L109.21 44.4339L78.6111 30.3804Z" fill="#191919"/>
</g>
</g>
<mask id="mask5_2003_44" style="mask-type:luminance" maskUnits="userSpaceOnUse" x="56" y="59" width="104" height="124">
<path d="M101.792 59.3816L159.42 85.8574L114.173 182.178L56.5452 155.702L101.792 59.3816Z" fill="white"/>
</mask>
<g mask="url(#mask5_2003_44)">
<mask id="mask6_2003_44" style="mask-type:luminance" maskUnits="userSpaceOnUse" x="57" y="86" width="103" height="71">
<path d="M143.762 120.387L130.523 148.568L57.4184 156.053L70.6706 127.846L143.762 120.387ZM86.8775 93.3487L73.0066 122.873L146.084 115.375L159.324 87.1945L157.306 86.2678L86.8775 93.3487Z" fill="white"/>
</mask>
<g mask="url(#mask6_2003_44)">
<path d="M102.112 60.9131L57.4157 156.051L114.185 182.129L158.881 86.9913L102.112 60.9131Z" fill="#2A2A2A"/>
</g>
</g>
<mask id="mask7_2003_44" style="mask-type:luminance" maskUnits="userSpaceOnUse" x="28" y="0" width="147" height="123">
<path d="M60.5386 0.712402L174.712 53.1659L142.344 122.069L28.171 69.6155L60.5386 0.712402Z" fill="white"/>
</mask>
<g mask="url(#mask7_2003_44)">
<mask id="mask8_2003_44" style="mask-type:luminance" maskUnits="userSpaceOnUse" x="44" y="27" width="116" height="68">
<path d="M117.831 27.0803L44.6295 34.5872L86.0448 94.7378L159.236 87.2344L117.831 27.0803ZM93.6906 77.5891L73.6878 48.5577L109.025 44.9482L129.021 73.9765L93.6906 77.5891Z" fill="white"/>
</mask>
<g mask="url(#mask8_2003_44)">
<path d="M60.5247 0.756104L28.7389 68.4133L142.905 120.858L174.691 53.2009L60.5247 0.756104Z" fill="#3D3D3D"/>
</g>
</g>
</svg>
